<svg width="500" height="500" viewBox="0 0 500 500" fill="none" xmlns="http://www.w3.org/2000/svg">
<path d="M139.251 346.36C115.731 346.36 97.2513 339.752 83.8113 326.536C70.3713 313.32 63.6513 295.288 63.6513 272.44H93.8913C93.8913 287.448 97.8113 299.096 105.651 307.384C113.715 315.448 124.915 319.48 139.251 319.48C153.587 319.48 164.675 315.448 172.515 307.384C180.579 299.096 184.611 287.448 184.611 272.44V125.272H125.811V97.72H214.851V272.44C214.851 295.288 208.019 313.32 194.355 326.536C180.915 339.752 162.547 346.36 139.251 346.36ZM350.464 346.36C329.184 346.36 312.16 340.088 299.392 327.544C286.624 314.776 280.24 297.528 280.24 275.8V158.2H310.48V275.8C310.48 289.688 314.064 300.552 321.232 308.392C328.4 316.008 338.144 319.816 350.464 319.816C363.008 319.816 372.864 316.008 380.032 308.392C387.424 300.552 391.12 289.688 391.12 275.8V158.2H421.36V275.8C421.36 297.528 414.864 314.776 401.872 327.544C388.88 340.088 371.744 346.36 350.464 346.36Z" fill="white"/>
<rect x="278" y="97" width="142" height="32" fill="#0266C7"/>
</svg>
