<svg width="855" height="271" viewBox="0 0 855 271" fill="none" xmlns="http://www.w3.org/2000/svg">
<path d="M92.6866 225.19C77.3566 225.19 65.3116 220.883 56.5516 212.269C47.7916 203.655 43.4116 191.902 43.4116 177.01H63.1216C63.1216 186.792 65.6766 194.384 70.7866 199.786C76.0426 205.042 83.3426 207.67 92.6866 207.67C102.031 207.67 109.258 205.042 114.368 199.786C119.624 194.384 122.252 186.792 122.252 177.01V81.088H83.9266V63.13H141.962V177.01C141.962 191.902 137.509 203.655 128.603 212.269C119.843 220.883 107.871 225.19 92.6866 225.19ZM230.352 225.19C216.482 225.19 205.386 221.102 197.064 212.926C188.742 204.604 184.581 193.362 184.581 179.2V102.55H204.291V179.2C204.291 188.252 206.627 195.333 211.299 200.443C215.971 205.407 222.322 207.889 230.352 207.889C238.528 207.889 244.952 205.407 249.624 200.443C254.442 195.333 256.851 188.252 256.851 179.2V102.55H276.561V179.2C276.561 193.362 272.327 204.604 263.859 212.926C255.391 221.102 244.222 225.19 230.352 225.19ZM315.896 223V63.13H342.176L391.013 200.005C390.721 196.355 390.356 191.902 389.918 186.646C389.626 181.244 389.334 175.623 389.042 169.783C388.896 163.797 388.823 158.176 388.823 152.92V63.13H407.876V223H381.596L332.978 86.125C333.27 89.629 333.562 94.082 333.854 99.484C334.146 104.74 334.365 110.361 334.511 116.347C334.803 122.187 334.949 127.808 334.949 133.21V223H315.896ZM438.45 223L480.06 63.13H506.559L547.95 223H528.021L517.509 180.514H469.11L458.598 223H438.45ZM473.052 163.87H513.348L501.084 114.595C498.748 105.251 496.923 97.44 495.609 91.162C494.295 84.884 493.492 80.796 493.2 78.898C492.908 80.796 492.105 84.884 490.791 91.162C489.477 97.44 487.652 105.178 485.316 114.376L473.052 163.87ZM581.809 223V205.042H614.44V81.088H581.809V63.13H667.219V81.088H634.588V205.042H667.219V223H581.809ZM710.277 223V63.13H751.668C762.034 63.13 770.94 65.101 778.386 69.043C785.978 72.985 791.818 78.533 795.906 85.687C800.14 92.841 802.257 101.309 802.257 111.091V174.82C802.257 184.602 800.14 193.143 795.906 200.443C791.818 207.597 785.978 213.145 778.386 217.087C770.94 221.029 762.034 223 751.668 223H710.277ZM729.987 205.48H751.668C761.304 205.48 768.823 202.779 774.225 197.377C779.773 191.975 782.547 184.456 782.547 174.82V111.091C782.547 101.601 779.773 94.155 774.225 88.753C768.823 83.351 761.304 80.65 751.668 80.65H729.987V205.48Z" fill="white"/>
<rect x="184" y="63" width="93" height="18" fill="#0266C7"/>
</svg>
